<svg width="30" height="20" viewBox="0 0 30 20" fill="none" xmlns="http://www.w3.org/2000/svg">
<rect width="30" height="20" rx="4" fill="#2B79EF"/>
<g clip-path="url(#clip0_2108_4165)">
<path d="M22.4589 3.89508C22.4365 3.74856 22.3866 3.63785 22.3062 3.55908C22.2229 3.47756 22.1101 3.41972 21.9704 3.38778C21.8202 3.35362 21.625 3.336 21.3905 3.336C20.9688 3.336 20.6674 3.38117 20.4947 3.4704C20.3914 3.52493 20.3779 3.59158 20.3779 3.64336C20.3849 3.90059 20.4143 4.28672 20.4642 4.78687C20.5541 5.73924 20.602 6.49221 20.607 7.02541L20.6125 7.61479L20.4143 7.06782C20.2522 6.61835 20.0535 6.02401 19.824 5.30133C19.5036 4.30875 19.302 3.71992 19.2246 3.55082C19.2081 3.52603 19.1538 3.4704 18.9756 3.42083C18.8204 3.37786 18.6467 3.35638 18.4601 3.35638C18.259 3.35638 18.0723 3.38998 17.9046 3.45608C17.7604 3.51281 17.6796 3.60094 17.6566 3.72488V3.72543C17.8103 3.9733 17.8872 4.29333 17.8872 4.6756C17.8872 5.03969 17.7968 5.37459 17.6172 5.6781C17.6342 5.93423 17.6596 6.18871 17.693 6.44099C17.702 6.50874 17.7115 6.57594 17.721 6.64259C17.7345 6.64865 17.7479 6.65581 17.7614 6.66242C17.9835 6.77368 18.1821 6.88715 18.3518 6.99952C18.5584 7.13667 18.6507 7.2518 18.6507 7.37298C18.6507 7.46992 18.6123 7.59551 18.5334 7.758C18.4611 7.90728 18.3697 8.0604 18.263 8.21298C18.2081 8.2912 18.1512 8.36446 18.0928 8.43166C18.1577 8.67016 18.225 8.88939 18.2939 9.08714C18.3208 9.15158 18.3847 9.20006 18.4845 9.23311C18.6058 9.27276 18.743 9.29259 18.8927 9.29259C19.0889 9.29259 19.2795 9.26505 19.4587 9.21052C19.6488 9.15269 19.6693 9.09815 19.6693 9.0976C19.6693 9.04142 19.6468 8.86901 19.541 8.36831C19.4731 8.0549 19.4172 7.7569 19.3758 7.48259L19.2705 6.78415L19.563 7.41374C19.9053 8.15074 20.1409 8.72304 20.2631 9.11413C20.2846 9.17527 20.348 9.22539 20.4518 9.25899C20.5775 9.29975 20.7297 9.32069 20.9034 9.32069C21.2033 9.32069 21.5092 9.27387 21.8137 9.18188C22.1745 9.07282 22.2818 8.961 22.3137 8.90041C22.3891 8.6608 22.4485 8.24162 22.4894 7.65445C22.5313 7.0535 22.5528 6.42501 22.5528 5.78661C22.5528 5.04079 22.5213 4.40459 22.4589 3.89508Z" fill="white"/>
<path d="M13.9933 6.53796C13.9933 6.3011 13.9977 6.067 14.0067 5.83621C13.9179 5.40381 13.8001 5.03311 13.6549 4.7252C13.5726 4.69766 13.4982 4.62715 13.4328 4.51423C13.3714 4.40737 13.3195 4.28069 13.2796 4.13582C12.9607 3.77338 12.566 3.59436 12.0809 3.59436C11.9616 3.59436 11.8369 3.60538 11.7061 3.62686C11.1252 3.72325 10.6601 3.94689 10.3238 4.2917C9.98492 4.63927 9.74288 5.05845 9.60465 5.53876C9.53578 5.77782 9.49535 6.04497 9.48438 6.33856C9.70795 6.51592 9.90407 6.73405 10.0688 6.98633C10.2534 7.2689 10.3921 7.58121 10.482 7.91446C10.5189 8.05217 10.4765 8.19263 10.3567 8.33309C10.2554 8.45206 10.1172 8.56388 9.94649 8.66523C9.92403 8.67845 9.90158 8.69112 9.87912 8.70379C9.92204 8.69663 9.96446 8.69057 10.0069 8.68561C10.1741 8.66689 10.3228 8.67625 10.448 8.71315C10.6337 8.76824 10.703 8.89162 10.728 8.98526C10.8163 9.31355 10.8498 9.63743 10.8273 9.9514C11.259 10.2158 11.797 10.2957 12.4322 10.1905C12.7911 10.131 13.092 10.0109 13.338 9.82857C13.584 9.6457 13.7752 9.40003 13.9149 9.08882C14.0067 8.88501 14.0756 8.65201 14.1205 8.39092C14.0357 7.8401 13.9933 7.21932 13.9933 6.53796ZM13.2342 8.20034C13.2132 8.32758 13.1489 8.71591 12.8914 8.75832C12.8779 8.76052 12.8639 8.76163 12.8504 8.76163C12.7402 8.76163 12.6279 8.69002 12.5156 8.54736C12.4033 8.40469 12.3015 8.19428 12.2052 7.904C12.1119 7.62363 12.035 7.26669 11.9776 6.84311C11.9202 6.41953 11.8968 6.06315 11.9082 5.78333C11.9207 5.49305 11.9561 5.27712 12.017 5.12289C12.0869 4.94553 12.1777 4.84638 12.288 4.8282C12.4098 4.80782 12.5296 4.88439 12.6538 5.0623C12.7606 5.21488 12.8589 5.43411 12.9547 5.73155C13.0481 6.02073 13.1239 6.38042 13.1813 6.8007C13.2676 7.43525 13.2851 7.89353 13.2342 8.20034Z" fill="white"/>
<path d="M10.6335 9.81587C10.633 9.85994 10.631 9.9029 10.6275 9.94642C10.6245 9.98718 10.62 10.0285 10.6146 10.0693C10.6071 10.1309 10.5966 10.1921 10.5841 10.2527C10.5033 10.6371 10.3491 10.9759 10.125 11.2585C10.0162 11.3956 9.89543 11.5119 9.76318 11.6077C9.73923 11.606 9.71527 11.6055 9.69082 11.6049C9.35097 11.5983 8.9682 11.6677 8.5525 11.811C8.38731 11.8682 8.21864 11.9371 8.04597 12.0186C7.85683 11.9988 7.67368 11.9492 7.49951 11.871C7.23402 11.7515 6.98849 11.535 6.7704 11.2282C6.54933 10.9164 6.36069 10.4741 6.20948 9.91337C6.01884 9.20391 5.95796 8.58919 6.02832 8.08519C6.09819 7.5889 6.27236 7.17909 6.54733 6.86732C6.8243 6.55335 7.18411 6.32201 7.61629 6.18044C7.81491 6.1149 8.00953 6.0824 8.19867 6.0824C8.30347 6.0824 8.40628 6.09231 8.50708 6.11269C8.78755 6.16833 9.04755 6.28235 9.2811 6.4509C9.2846 6.45365 9.28809 6.45586 9.29158 6.45861C9.32153 6.48064 9.35097 6.50323 9.37992 6.52636C9.41435 6.55445 9.44828 6.58365 9.48122 6.61394V6.61449C9.64042 6.75771 9.78314 6.92571 9.90691 7.11519C10.0781 7.37738 10.2068 7.66766 10.2902 7.97723C10.3056 8.03396 10.2792 8.10281 10.2113 8.18213C10.1245 8.28348 10.0037 8.38098 9.85151 8.47131C9.83505 8.48123 9.81858 8.49059 9.80211 8.49941C9.77217 8.51648 9.74222 8.53301 9.71128 8.54843C9.68134 8.56385 9.6509 8.57817 9.62046 8.5925C9.53512 8.6316 9.44779 8.66576 9.35846 8.69495C9.21822 8.74122 9.07899 8.77317 8.94525 8.79079C8.81999 8.80677 8.71119 8.79795 8.62186 8.7649C8.549 8.73791 8.50409 8.68503 8.48063 8.59745C8.4477 8.47572 8.40827 8.33802 8.36286 8.18819C8.31695 8.03617 8.26505 7.8913 8.21015 7.75745C8.15176 7.61699 8.08838 7.50242 8.02051 7.41594C7.90923 7.27328 7.80143 7.27162 7.73007 7.29476C7.58535 7.34213 7.51797 7.49691 7.52895 7.7558C7.53844 7.96566 7.58135 8.21518 7.65721 8.49665C7.72458 8.74618 7.81042 9.00837 7.91322 9.27552C8.01552 9.54377 8.12631 9.79274 8.24159 10.0164C8.35837 10.2433 8.47315 10.4267 8.58344 10.5622C8.63284 10.6228 8.78356 10.8096 8.95273 10.7539C9.01511 10.733 9.11941 10.6641 9.11342 10.4333C9.10943 10.3061 9.08947 10.159 9.05404 9.99599C9.0196 9.83956 8.98417 9.69414 8.94924 9.56415C8.92928 9.48979 8.93876 9.42754 8.97968 9.36805C9.03008 9.29369 9.10793 9.22539 9.21124 9.1659C9.32203 9.10201 9.44429 9.04748 9.57454 9.00506C9.63642 8.98468 9.69831 8.96706 9.76019 8.95273C9.79362 8.94447 9.82706 8.93731 9.86 8.93015C9.89543 8.92409 9.93036 8.91803 9.9653 8.91307C9.98576 8.90977 10.0067 8.90702 10.0272 8.90481C10.1699 8.88884 10.2942 8.896 10.396 8.92629C10.5008 8.95714 10.5267 9.01057 10.5367 9.04803C10.6071 9.30912 10.6395 9.5658 10.6335 9.81587Z" fill="white"/>
<path d="M11.4263 13.1087C11.3584 12.8696 11.2471 12.6504 11.0944 12.4582C10.9432 12.267 10.7486 12.1133 10.5165 12.0026C10.3154 11.9062 10.0809 11.8489 9.81737 11.8313C9.77495 11.828 9.73204 11.8264 9.68812 11.8253C9.66516 11.8247 9.64221 11.8247 9.61875 11.8247C9.50048 11.8264 9.37622 11.8379 9.24646 11.8589C9.08278 11.8847 8.91061 11.9261 8.73095 11.9828C8.69202 11.9949 8.6526 12.0076 8.61268 12.0214C8.51337 12.0555 8.41306 12.0946 8.31075 12.1376C8.2339 12.1706 8.15655 12.2053 8.0782 12.2428C7.69194 12.4284 7.28671 12.6757 6.86801 12.9809C6.80314 13.0305 6.82559 13.1698 6.85603 13.2778C6.89346 13.41 6.95684 13.5477 7.04417 13.6881C7.13151 13.8286 7.22483 13.9432 7.32164 14.0285C7.37454 14.0754 7.4489 14.1266 7.50479 14.1079C7.53274 14.098 7.60011 14.0632 7.73386 13.9404C7.79474 13.8864 7.85163 13.8413 7.90353 13.8055L8.02031 13.725L8.05325 13.8727C8.1271 14.2048 8.21593 14.554 8.31674 14.9099C8.65609 16.1074 9.0718 17.1159 9.55088 17.908C9.59031 17.9691 9.67015 18.0446 9.89772 17.9664C9.99204 17.9339 10.0904 17.8854 10.1917 17.821C10.293 17.7565 10.3978 17.6766 10.5051 17.5814C10.7236 17.388 10.9073 17.1881 11.0515 16.9881C11.2407 16.7259 11.2217 16.6483 11.2207 16.645C11.2167 16.6306 11.2002 16.5866 11.1334 16.4852C11.0795 16.4026 11.0161 16.3117 10.9457 16.2137C10.8424 16.0677 10.7481 15.9272 10.6648 15.795L10.6153 15.7168L10.6782 15.6518C10.813 15.5125 10.9322 15.367 11.034 15.2161C10.9936 15.1908 10.9527 15.1484 10.9188 15.0784C10.8798 14.998 10.8524 14.9033 10.8364 14.7969C10.813 14.6378 10.8145 14.4731 10.8419 14.3089C10.8753 14.1068 10.9532 13.9933 11.073 13.9718C11.1244 13.9624 11.1748 13.9547 11.2222 13.9487C11.2446 13.9459 11.2676 13.9426 11.2911 13.9393C11.334 13.6656 11.3809 13.3957 11.4323 13.1318C11.4308 13.1241 11.4283 13.1164 11.4263 13.1087ZM10.2086 14.646L10.1123 14.7821L10.0409 14.6284C9.88924 14.3001 9.7515 13.9602 9.63173 13.6182L9.55537 13.4006L9.75599 13.4739C10.0789 13.5917 10.2775 13.7757 10.3469 14.0197C10.4047 14.2241 10.3583 14.4351 10.2086 14.646Z" fill="white"/>
<path d="M15.6516 14.6537C15.5588 14.6521 15.472 14.646 15.3906 14.6367C15.2065 14.6069 15.0638 14.5089 14.9619 14.3458C14.8681 14.1949 14.8067 14.0192 14.7798 13.8231C14.7424 13.5482 14.7593 13.2893 14.8297 13.0536C14.8317 13.047 14.8337 13.0409 14.8362 13.0343L14.7868 13.0619L14.7359 12.9886C14.3821 12.4747 14.0652 12.0434 13.7942 11.7063L13.6315 11.497L13.6445 11.4413C13.6694 11.3367 13.7029 11.2144 13.7448 11.0783C13.8266 10.8112 13.8346 10.7396 13.8351 10.7247C13.8236 10.6625 13.7563 10.5997 13.6395 10.5413C13.4948 10.4691 13.3231 10.4174 13.13 10.3865C12.9368 10.3562 12.7612 10.3551 12.607 10.3827C12.4952 10.403 12.3539 10.4488 12.317 10.5518C12.1773 10.961 12.0266 11.481 11.8694 12.0952C11.785 12.4257 11.7077 12.7699 11.6383 13.1246C11.6203 13.2133 11.6034 13.3026 11.5869 13.3929C11.5545 13.567 11.5245 13.7438 11.4966 13.9222C11.4891 13.9663 11.4826 14.0104 11.4756 14.0544L11.4641 14.1321L11.3938 14.1448C11.3424 14.1541 11.292 14.1618 11.2441 14.1679C11.2001 14.1734 11.1532 14.18 11.1053 14.1888C11.0844 14.1927 11.0554 14.2434 11.0379 14.3486C11.015 14.4879 11.0135 14.6267 11.0335 14.7611C11.0459 14.8438 11.0664 14.9159 11.0948 14.9749C11.1183 15.0228 11.1383 15.0294 11.1477 15.031H11.1492L11.2645 15.036L11.3738 15.041L11.3733 15.0487L11.3653 15.155C11.3339 15.6011 11.3384 15.9845 11.3793 16.2946C11.3963 16.3712 11.4467 16.4753 11.6762 16.5089C11.8853 16.5392 12.1244 16.5309 12.3859 16.483C12.7093 16.4246 13.0152 16.3315 13.2951 16.2054C13.5691 16.0826 13.6315 16.0121 13.645 15.9917C13.5906 15.6226 13.5437 15.2321 13.5062 14.8316L13.4967 14.7325L13.5856 14.7127C13.8391 14.6559 14.0946 14.592 14.3446 14.5226L14.433 14.4978L14.4634 14.5926C14.5867 14.9754 14.6895 15.404 14.7678 15.8655C14.7803 15.9008 14.8427 15.9267 14.936 15.9355C15.0757 15.9487 15.2304 15.9399 15.3961 15.9102C15.6092 15.8711 15.7664 15.8237 15.8632 15.7686C15.8917 15.7526 15.958 15.7102 15.9521 15.6728C15.9061 15.3648 15.8058 15.0239 15.6516 14.6537ZM13.4409 13.6545L13.4748 12.4124L14.0048 13.4359L13.4409 13.6545Z" fill="white"/>
<path d="M19.1146 12.6532C18.9674 12.6708 18.8366 12.7766 18.7238 12.9672C18.616 13.15 18.5447 13.3621 18.5102 13.5978C18.2572 13.7802 17.9588 13.9338 17.6204 14.0561C17.2287 14.1982 16.8414 14.3012 16.4706 14.3629C16.2151 14.4059 15.9836 14.4296 15.7795 14.4334C15.741 14.4345 15.7036 14.4345 15.6677 14.434C15.6293 14.4334 15.5913 14.4323 15.5554 14.4307C15.507 14.4274 15.4606 14.4235 15.4162 14.418C15.2914 14.3976 15.1966 14.3332 15.1267 14.2208C15.0499 14.098 14.9995 13.9531 14.9775 13.7906C14.9446 13.5499 14.9585 13.3252 15.0194 13.1225C15.0988 12.857 15.2175 12.8372 15.257 12.8305C15.3598 12.8135 15.4591 12.8019 15.5534 12.7964C15.5923 12.7942 15.6308 12.7931 15.6677 12.7925H15.7101C15.7455 12.7925 15.781 12.7931 15.8159 12.7936C15.8957 12.7953 15.9751 12.7986 16.0524 12.8041C16.3214 12.8272 16.6353 12.8157 16.9877 12.7683C17.1513 12.7408 17.2666 12.7066 17.3405 12.6636C17.4448 12.6025 17.4917 12.5287 17.4802 12.445C17.4652 12.3332 17.355 12.2935 17.3185 12.2803C17.2472 12.2549 17.1608 12.2467 17.053 12.2544L16.7082 12.2869C16.3683 12.3216 16.042 12.3458 15.738 12.359C15.4396 12.3717 15.1701 12.3546 14.9356 12.3073C14.712 12.2627 14.5269 12.1701 14.3856 12.0335C14.2489 11.9002 14.1606 11.6953 14.1236 11.4232C14.0862 11.1494 14.1067 10.8994 14.1845 10.6801C14.2639 10.4571 14.3871 10.2549 14.5513 10.0786C14.7185 9.89907 14.9196 9.74043 15.1487 9.60713C15.3807 9.47218 15.6347 9.35926 15.9042 9.27113C16.1757 9.18245 16.4527 9.11415 16.7282 9.06788C17.0535 9.0139 17.3724 8.98966 17.6758 8.99572C17.7582 9.00453 17.8355 9.08165 17.9054 9.22486C17.9872 9.39342 18.0446 9.59336 18.0756 9.81975C18.0985 9.9872 18.103 10.1536 18.0891 10.3133C18.0761 10.4659 18.0406 10.5953 17.9838 10.6989C17.9343 10.7892 17.867 10.8388 17.7722 10.8547C17.3095 10.9319 16.8998 10.9914 16.553 11.0327C16.3179 11.0635 16.1009 11.0938 15.9067 11.1235C15.8099 11.1395 15.5155 11.1885 15.503 11.4171L15.5025 11.4287L15.504 11.4403C15.516 11.5256 15.5813 11.5824 15.6991 11.6099C15.7845 11.6303 15.9082 11.6265 16.0774 11.5984L16.4257 11.54C16.6733 11.4987 16.9592 11.4689 17.2751 11.4502C17.5855 11.4326 17.8874 11.4596 18.1699 11.5295C18.1864 11.5339 18.2028 11.5389 18.2193 11.5438C18.2398 11.7091 18.2877 11.855 18.3635 11.979C18.4893 12.185 18.6744 12.3519 18.9135 12.4753C18.9779 12.5083 19.0457 12.5397 19.1166 12.5695C19.1176 12.597 19.1171 12.6251 19.1146 12.6532Z" fill="white"/>
<path d="M22.9959 13.6083C22.9794 13.7774 22.9135 13.9399 22.7997 14.0919C22.684 14.2461 22.5093 14.3761 22.2837 14.4775C21.9673 14.6113 21.6 14.6929 21.1923 14.7199C21.0361 14.7303 20.8814 14.7353 20.7297 14.7353C20.4817 14.7353 20.2406 14.7215 20.0096 14.694C19.5854 14.6438 19.237 14.5618 18.977 14.4516C18.8608 14.3965 18.7839 14.3078 18.742 14.1795C18.6966 14.0401 18.6811 13.887 18.6966 13.7251C18.6971 13.724 18.6971 13.7223 18.6971 13.7212C18.7021 13.67 18.709 13.6199 18.718 13.5714C18.729 13.5075 18.744 13.4453 18.7619 13.3863C18.7944 13.2784 18.8378 13.1781 18.8912 13.0872C18.9571 12.9754 19.0185 12.9203 19.0694 12.8933C19.1063 12.8741 19.1377 12.8696 19.1607 12.8696C19.1682 12.8696 19.1752 12.8702 19.1806 12.8707C19.1836 12.8707 19.1861 12.8713 19.1886 12.8713C19.2196 12.8752 19.2505 12.879 19.2805 12.884C19.3922 12.9005 19.4975 12.9225 19.5944 12.9495C19.7201 12.9853 19.8454 13.0255 19.9641 13.069C20.2187 13.1671 20.5251 13.2437 20.8769 13.2965C21.0411 13.3164 21.1609 13.3153 21.2417 13.2943C21.357 13.2646 21.4194 13.2067 21.4274 13.1225C21.4383 13.0096 21.341 12.9407 21.3091 12.9176C21.2457 12.8729 21.1644 12.8405 21.0581 12.8184L20.7172 12.7529C20.3804 12.6906 20.0595 12.6229 19.762 12.5502C19.5974 12.51 19.4431 12.4626 19.3014 12.4086C19.2635 12.3948 19.2271 12.38 19.1911 12.3651C19.1502 12.348 19.1108 12.3304 19.0724 12.3117C19.0469 12.3001 19.0225 12.288 18.9985 12.2753C18.7924 12.1695 18.6347 12.028 18.5294 11.8561C18.4885 11.7895 18.458 11.7135 18.4381 11.6292C18.4281 11.5884 18.4211 11.5455 18.4156 11.5003C18.4116 11.4617 18.4091 11.4215 18.4086 11.3802C18.4071 11.3207 18.4096 11.2579 18.4161 11.1924C18.4431 10.917 18.5204 10.6812 18.6467 10.4906C18.7744 10.2973 18.9406 10.1365 19.1397 10.012C19.3428 9.88529 19.5739 9.78834 19.8264 9.72335C20.0814 9.65835 20.3534 9.62034 20.6344 9.61043C20.9168 9.60051 21.2008 9.61208 21.4783 9.64513C21.8051 9.68424 22.119 9.75034 22.411 9.84122C22.4888 9.87317 22.5457 9.96901 22.5801 10.1271C22.6206 10.3133 22.6301 10.5226 22.6076 10.7501C22.5911 10.9186 22.5577 11.0806 22.5073 11.2315C22.4594 11.3753 22.3955 11.4904 22.3167 11.5747C22.2488 11.6474 22.1699 11.6771 22.0761 11.6661C21.6095 11.6105 21.1993 11.5537 20.8559 11.4964C20.6224 11.4601 20.4053 11.4287 20.2097 11.4028C20.1129 11.3912 19.8164 11.356 19.7521 11.5736L19.7476 11.5961C19.7396 11.6815 19.7895 11.7553 19.8968 11.8148C19.9751 11.8583 20.0959 11.8892 20.2661 11.9096L20.6159 11.9514C20.8654 11.9812 21.1489 12.0318 21.4583 12.1029C21.7627 12.1729 22.0487 12.283 22.3052 12.4301C22.5517 12.5816 22.7364 12.7661 22.8536 12.9787C22.9704 13.1897 23.0168 13.3957 22.9959 13.6083Z" fill="white"/>
<path d="M18.4199 7.32726C18.3924 7.29642 18.342 7.25015 18.2487 7.18845C18.107 7.09426 17.9433 6.99952 17.7616 6.90533C17.7347 6.89101 17.7067 6.87724 17.6788 6.86292C17.6693 6.85796 17.6598 6.85355 17.6509 6.84915C17.6139 6.83042 17.5775 6.81279 17.5416 6.79517C17.3779 6.71585 17.2267 6.64645 17.0899 6.58861C16.8549 6.48946 16.8025 6.47624 16.792 6.47459L16.5215 6.43218L16.7526 6.27189C17.0395 6.07414 17.2586 5.85712 17.4128 5.61971C17.4462 5.56849 17.4767 5.51616 17.5036 5.46218C17.5396 5.39222 17.57 5.32117 17.595 5.24791C17.6568 5.06834 17.6873 4.87775 17.6873 4.6756C17.6873 4.47235 17.6633 4.29058 17.6159 4.13249C17.594 4.05813 17.5665 3.98928 17.5341 3.92538C17.5206 3.89839 17.5056 3.8725 17.4902 3.84717C17.4767 3.82568 17.4627 3.8053 17.4482 3.78492C17.0774 3.26439 16.3448 3 15.2709 3C14.7015 3 14.1076 3.07051 13.5063 3.21041C13.4159 3.2352 13.3965 3.41422 13.3965 3.55964C13.3965 3.69954 13.4154 3.84937 13.4529 4.00525C13.4544 4.01186 13.4559 4.01792 13.4579 4.02398C13.4938 4.16995 13.5422 4.29498 13.6006 4.39578C13.6325 4.45142 13.6819 4.51752 13.7328 4.51752C13.7443 4.51752 13.7588 4.51641 13.7773 4.51366C13.8232 4.50705 13.892 4.48942 13.9923 4.44811C14.0602 4.42222 14.1261 4.40074 14.1895 4.38367L14.3312 4.34621L14.3117 4.50595C14.2603 4.92623 14.2249 5.36468 14.2074 5.81525C14.1999 5.98491 14.1955 6.15621 14.194 6.32917C14.193 6.39858 14.1925 6.46798 14.1925 6.53793C14.1925 7.06617 14.2184 7.5564 14.2703 8.00367C14.2853 8.13697 14.3028 8.26641 14.3227 8.392C14.3417 8.51373 14.3631 8.63106 14.3866 8.74508C14.3976 8.79135 14.435 8.94448 14.7619 8.94448C14.961 8.94448 15.1911 8.89766 15.4451 8.80512C15.7026 8.71203 15.9286 8.60297 16.1168 8.48179C16.3573 8.327 16.3603 8.25264 16.3603 8.25154C16.3603 8.23667 16.3538 8.16341 16.27 7.84944C16.2361 7.73212 16.2071 7.6203 16.1847 7.51895L16.1168 7.20939L16.3434 7.40658C16.4921 7.53547 16.7526 7.78004 17.1184 8.13256C17.4303 8.43992 17.5396 8.53797 17.578 8.56882C17.6369 8.55945 17.7102 8.51539 17.7926 8.43992C17.8175 8.41734 17.8425 8.3931 17.8669 8.36777C17.8939 8.34022 17.9208 8.31103 17.9478 8.28018C17.9742 8.24934 18.0007 8.21684 18.0271 8.18324C18.0531 8.14964 18.079 8.11439 18.1045 8.07803C18.2048 7.93482 18.2901 7.79216 18.3575 7.6539C18.4388 7.48645 18.4508 7.40603 18.4508 7.37298C18.4508 7.37298 18.4468 7.35811 18.4199 7.32726ZM16.0519 5.72822L15.9182 5.80534L15.9062 5.64009C15.8862 5.37845 15.8767 5.11516 15.8767 4.85627L15.8837 4.44205L16.0374 4.56158C16.285 4.75382 16.4107 4.96644 16.4107 5.19338C16.4107 5.41095 16.29 5.59107 16.0519 5.72822Z" fill="white"/>
</g>
<defs>
<clipPath id="clip0_2108_4165">
<rect width="17" height="15" fill="white" transform="translate(6 3)"/>
</clipPath>
</defs>
</svg>
