<svg width="30" height="20" viewBox="0 0 30 20" fill="none" xmlns="http://www.w3.org/2000/svg">
<rect width="30" height="20" rx="4" fill="#F93208"/>
<path d="M25.5229 13.7398C25.377 13.7219 25.1933 13.6742 25.069 13.6265C24.8961 13.5609 24.6313 13.3999 24.6313 13.3641C24.6313 13.3522 24.9988 12.6426 25.015 12.6187C25.015 12.6128 25.0961 12.6545 25.1933 12.7082C25.4527 12.8573 25.5716 12.8931 25.7553 12.8931C25.9012 12.8931 25.9931 12.8632 26.0417 12.8096C26.1066 12.732 26.0741 12.6187 25.9877 12.5889C25.9661 12.583 25.858 12.577 25.7553 12.577C25.6202 12.577 25.5338 12.571 25.4743 12.5591C25.1177 12.4697 24.8421 12.2192 24.7286 11.8793C24.707 11.8137 24.7016 11.766 24.7016 11.6288V11.4619L24.7556 11.3366C24.9123 10.9789 25.2149 10.7224 25.5824 10.633C25.6851 10.6091 25.7391 10.6091 25.8958 10.6091C26.1066 10.6151 26.2308 10.6389 26.42 10.7105C26.6199 10.788 26.8901 10.9252 26.8847 10.955C26.8847 10.961 26.8036 11.11 26.7118 11.2889C26.5767 11.5394 26.5335 11.611 26.5172 11.605C26.447 11.5692 26.1282 11.4619 26.0471 11.438C25.9931 11.4261 25.8904 11.4142 25.8202 11.4142C25.6851 11.4142 25.6472 11.4261 25.5986 11.4917C25.5662 11.5394 25.5716 11.6288 25.6094 11.6646C25.6418 11.6944 25.6472 11.7004 25.8364 11.7004C26.3011 11.7123 26.5929 11.8197 26.7982 12.0701C26.9225 12.2192 26.9874 12.3862 26.9982 12.5949C27.0144 12.8931 26.9225 13.1495 26.7118 13.3701C26.5659 13.5192 26.5118 13.5609 26.3227 13.6325C26.1066 13.7339 25.7553 13.7697 25.5229 13.7398ZM14.3263 13.7398C14.1156 13.7041 13.9048 13.5788 13.6995 13.3582C13.5752 13.227 13.5049 13.1197 13.4293 12.9586C13.3266 12.7261 13.2834 12.5412 13.278 12.2669C13.2726 11.9986 13.2996 11.7958 13.3753 11.5513C13.4509 11.3009 13.532 11.1577 13.6671 11.0087C13.9589 10.6867 14.3155 10.5555 14.6505 10.6509C14.8451 10.7045 15.0072 10.8059 15.1747 10.9908L15.2504 11.0743V10.7105H16.2176V13.6623H15.2504V13.4775C15.2504 13.3761 15.2504 13.2926 15.245 13.2926C15.2396 13.2926 15.2017 13.3343 15.1585 13.382C14.9099 13.6563 14.6073 13.7875 14.3263 13.7398ZM23.048 13.7279C22.7778 13.6921 22.5293 13.5908 22.3023 13.4297C22.0429 13.2449 21.8484 12.8931 21.7619 12.4637C21.7349 12.3265 21.7241 12.0403 21.7457 11.9032C21.8106 11.4142 22.0807 11.0206 22.5184 10.7761C22.5995 10.7284 22.6752 10.7045 22.7886 10.6747C22.9291 10.6389 22.967 10.6389 23.2047 10.6389C23.4425 10.6389 23.4803 10.6449 23.5722 10.6688C24.0153 10.8 24.3233 11.1876 24.4368 11.766C24.4584 11.8853 24.4638 11.9509 24.4638 12.1536V12.3981L22.6427 12.41L22.6806 12.4816C22.7886 12.6903 22.9832 12.8036 23.248 12.8036C23.4371 12.8036 23.637 12.738 23.7505 12.6426L23.7937 12.6068L24.4098 13.2508L24.3611 13.3045C24.0909 13.6146 23.5344 13.7935 23.048 13.7279ZM6.68538 13.71C6.47463 13.6742 6.31792 13.6086 6.1504 13.4834C5.74512 13.1912 5.49655 12.6247 5.51816 12.0582C5.54518 11.3665 5.95046 10.8417 6.58271 10.6807C6.8583 10.6091 7.17712 10.5972 7.42029 10.6509C7.84719 10.7463 8.21465 11.0683 8.39837 11.5096C8.5821 11.9389 8.58751 12.4339 8.41459 12.8453C8.22005 13.3105 7.82017 13.6086 7.26899 13.7041C7.13929 13.7219 6.78805 13.7279 6.68538 13.71ZM19.7571 13.6862C19.4491 13.6385 19.1573 13.4894 18.9628 13.2866C18.7196 13.0362 18.5791 12.6426 18.5791 12.2311C18.5791 11.8018 18.7574 11.4201 19.087 11.1339C19.1465 11.0862 19.1897 11.0385 19.1897 11.0385C19.1897 11.0385 19.0925 11.0385 18.9736 11.0504C18.8601 11.0564 18.7628 11.0623 18.7574 11.0564C18.7466 11.0444 18.8223 10.9252 18.8763 10.8775C18.9898 10.7821 19.1249 10.7463 19.26 10.7821C19.3572 10.8119 19.3572 10.7821 19.2438 10.6449L19.1411 10.5197L19.2113 10.4541C19.2492 10.4183 19.2816 10.3885 19.287 10.3885C19.2924 10.3885 19.3356 10.4601 19.3843 10.5495C19.4329 10.6389 19.4815 10.7105 19.4869 10.7165C19.4923 10.7224 19.5194 10.6867 19.541 10.6449C19.649 10.466 19.8003 10.3825 19.9463 10.4302C20.0435 10.4601 20.0435 10.466 19.9463 10.6032C19.8976 10.6688 19.8598 10.7284 19.8598 10.7284C19.8598 10.7284 19.9625 10.7284 20.0813 10.7224C20.5136 10.7105 20.8 10.7821 21.0432 10.9669C21.1243 11.0266 21.2486 11.1637 21.308 11.2651C21.3566 11.3426 21.4863 11.6348 21.5133 11.7362C21.5782 11.9509 21.589 12.3325 21.535 12.5531C21.4971 12.7082 21.3999 12.9229 21.3026 13.0541C21.0864 13.3522 20.7298 13.5729 20.3299 13.6623C20.2056 13.6921 19.8706 13.7041 19.7571 13.6862ZM9.7277 13.6623H8.70099L8.69558 12.7798C8.69018 12.2967 8.69018 11.6229 8.69018 11.2889V10.6807H9.70609V10.8178C9.70609 10.9371 9.71149 10.955 9.7223 10.961C9.73311 10.961 9.77094 10.9311 9.81417 10.8775C9.90603 10.7761 9.99249 10.7224 10.133 10.6688C10.5167 10.5256 10.9003 10.627 11.1867 10.949L11.2624 11.0325L11.284 10.9848C11.3975 10.7701 11.7163 10.6211 12.0405 10.6211C12.3107 10.6211 12.5539 10.7224 12.7268 10.9073C12.9051 11.0981 13.0132 11.3963 13.0294 11.7481C13.0294 11.8018 13.0348 12.255 13.0402 12.7559L13.0456 13.6683H12.0135L12.0081 13.4596C12.0027 13.3463 12.0027 13.0242 12.0027 12.744C12.0027 12.4637 11.9973 12.1536 11.9973 12.0463C11.9919 11.8376 11.9811 11.8018 11.9108 11.7302C11.8298 11.6408 11.6893 11.611 11.5812 11.6527C11.4839 11.6944 11.4137 11.7958 11.3921 11.933C11.3867 11.9747 11.3813 12.261 11.3813 12.8215V13.6504H10.8679C10.5869 13.6504 10.3545 13.6504 10.3545 13.6504C10.3545 13.6504 10.3491 13.2508 10.3491 12.7678L10.3437 11.8853L10.3113 11.8256C10.2789 11.7541 10.2357 11.7064 10.1654 11.6706C10.1222 11.6467 10.1114 11.6408 10.0357 11.6408C9.96547 11.6408 9.94386 11.6467 9.91143 11.6646C9.82497 11.7123 9.76553 11.8197 9.73311 11.9628C9.7169 12.0284 9.7169 12.1059 9.7223 12.8513L9.7277 13.6623ZM4.92375 13.6623H3.92945V12.255V10.8477H3V9.75042L4.40498 9.75639C5.17772 9.76235 5.81537 9.76831 5.81537 9.76831C5.82077 9.76831 5.82077 10.0128 5.82077 10.305V10.8357H4.92375V13.6623ZM17.8009 10.6986H18.2278V11.6766H17.8009V12.094C17.8009 12.3564 17.8064 12.5233 17.8118 12.5472C17.8226 12.5949 17.8658 12.6486 17.9036 12.6665C17.9252 12.6784 17.9847 12.6784 18.1306 12.6784H18.3305V13.6444H18.0928C17.9631 13.6444 17.828 13.6385 17.7955 13.6385C17.6875 13.6325 17.4983 13.6027 17.4173 13.5848C17.039 13.4775 16.8607 13.2389 16.7904 12.7559C16.7796 12.6903 16.7742 12.5174 16.7688 12.1655L16.758 11.6646L16.6986 11.6587C16.6553 11.6527 16.6121 11.6527 16.5743 11.6527H16.504V10.6867H16.7796L16.7742 10.3348C16.7742 10.144 16.7688 9.95317 16.7688 9.9174L16.7634 9.8518H17.8009V10.6986ZM14.9424 12.6545C15.1423 12.5472 15.2612 12.2252 15.1855 11.9807C15.1477 11.8435 15.0396 11.7362 14.8991 11.6825C14.764 11.6348 14.6668 11.6408 14.5479 11.7004C14.3912 11.7839 14.2993 11.9509 14.2993 12.1596C14.2993 12.3087 14.3425 12.4279 14.4344 12.5293C14.5695 12.6903 14.7856 12.738 14.9424 12.6545ZM7.13929 12.6486C7.296 12.6128 7.42029 12.5054 7.49054 12.3564C7.52296 12.2788 7.52837 12.2729 7.52837 12.1775C7.52837 12.0642 7.51216 11.9747 7.47433 11.8912C7.34464 11.605 7.02582 11.4917 6.76103 11.6348C6.63134 11.7064 6.51786 11.8733 6.49084 12.0343C6.45301 12.2848 6.62594 12.583 6.84749 12.6545C6.89072 12.6784 7.05283 12.6724 7.13929 12.6486ZM23.583 11.8197C23.556 11.6348 23.4263 11.4977 23.2263 11.4619C22.9724 11.4142 22.7184 11.5752 22.6644 11.8256C22.6535 11.8614 22.6589 11.8614 22.7346 11.8674C22.7778 11.8674 22.9886 11.8733 23.1993 11.8733H23.5884L23.583 11.8197ZM10.5383 10.2036C10.2303 10.1679 9.95466 10.0128 9.73311 9.75639C9.48453 9.46419 9.34944 9.10639 9.33323 8.68897C9.32782 8.46833 9.33863 8.31925 9.38727 8.15227C9.56559 7.52017 10.0844 7.14449 10.8031 7.11467C10.9273 7.10871 11.0354 7.11467 11.1111 7.1266C11.7325 7.22201 12.1864 7.6931 12.3215 8.3908C12.3485 8.53989 12.3485 8.87383 12.3215 9.01694C12.2026 9.59538 11.8352 9.99492 11.2786 10.15C11.057 10.1977 10.7382 10.2275 10.5383 10.2036ZM19.3897 8.67108V7.18027H20.4056V7.38898C20.4056 7.50228 20.411 7.59769 20.4164 7.59769C20.4218 7.59769 20.4542 7.56191 20.4866 7.51421C20.6001 7.35916 20.7838 7.22201 20.9514 7.15641C21.4809 6.95366 22.0429 7.40687 22.124 8.09861C22.1294 8.17016 22.1348 8.59355 22.1348 9.18392V10.1559H21.1081V8.3908L21.0756 8.31925C21.0216 8.19998 20.9135 8.12842 20.7784 8.12842C20.6271 8.12842 20.5136 8.2298 20.4542 8.42062C20.4272 8.50411 20.4272 8.53392 20.4218 9.33896L20.4164 10.1738H19.3897V8.67108ZM13.7805 7.20412H14.2074V8.18805H13.7805V8.62933C13.7805 9.0408 13.7805 9.07061 13.8076 9.11236C13.8508 9.18988 13.8832 9.20181 14.1102 9.20181H14.3101V10.1679H14.0994C13.9859 10.1679 13.8238 10.1619 13.7481 10.1559C13.278 10.1201 13.024 9.97703 12.8835 9.66694C12.7862 9.45226 12.7646 9.2674 12.7538 8.61741L12.7484 8.17613H12.6836C12.6457 8.17613 12.5917 8.17016 12.5593 8.17016L12.4998 8.1642V7.21605H12.7646V6.38715H13.7913V7.20412H13.7805ZM15.7691 7.20412H16.196V8.17016H15.7691L15.7745 8.61741C15.7799 9.02291 15.7799 9.06465 15.8016 9.10043C15.8502 9.17795 15.8718 9.18988 16.0934 9.18988L16.2987 9.19584V10.15H16.0285C15.8772 10.15 15.7097 10.144 15.6502 10.138C15.1045 10.0784 14.8559 9.83987 14.7748 9.28529C14.7586 9.18988 14.7532 9.01098 14.7478 8.67108C14.7424 8.40869 14.737 8.18805 14.7316 8.18209C14.7262 8.17613 14.6668 8.17016 14.6019 8.1642L14.483 8.15824V7.19219H14.764L14.7478 6.3633H15.7799L15.7691 7.20412ZM6.61513 10.138L6.33413 10.1321V6.25H7.17712C8.08496 6.25 8.16061 6.25596 8.38216 6.32752C8.73881 6.44082 9.01441 6.69128 9.16571 7.04311C9.24136 7.21008 9.26838 7.34724 9.27379 7.56191C9.29 8.03897 9.10627 8.4564 8.78204 8.67704C8.68478 8.74264 8.67937 8.7486 8.69558 8.77842C8.73881 8.85594 9.41429 10.144 9.41429 10.15C9.41429 10.1559 9.1549 10.1559 8.84149 10.1559H8.26868L7.93365 9.53575C7.74992 9.19584 7.59321 8.90364 7.5824 8.89172C7.5716 8.87383 7.53917 8.86786 7.46352 8.8619L7.36085 8.85594L7.36625 9.50593L7.37166 10.1559L7.12849 10.15C7.0042 10.144 6.76643 10.138 6.61513 10.138ZM10.8787 9.7385C10.9976 9.69676 11.0516 9.6252 11.0516 9.48804C11.0516 9.44034 11.0408 9.3807 11.03 9.34492C10.9706 9.17199 10.9706 9.17795 10.9868 9.14217C10.9922 9.12428 11.0138 9.10043 11.03 9.09447C11.0678 9.07658 11.0949 9.09447 11.1489 9.17795C11.2246 9.30318 11.365 9.4463 11.4569 9.494C11.5272 9.52978 11.5488 9.53575 11.6244 9.52978C11.7001 9.52382 11.7217 9.51786 11.7811 9.47015C11.8622 9.41052 11.8838 9.36281 11.8838 9.23758C11.8838 9.11832 11.8244 9.01694 11.7109 8.93942C11.6406 8.89172 11.4947 8.84401 11.3867 8.83208C11.2516 8.82016 11.2029 8.79034 11.1867 8.73071C11.1705 8.67108 11.1867 8.61741 11.2408 8.57567C11.2678 8.55181 11.3002 8.54585 11.4029 8.53989C11.4839 8.53392 11.5434 8.522 11.5704 8.51007C11.7487 8.40869 11.7595 8.06879 11.592 7.9376C11.5434 7.90182 11.5272 7.89585 11.4515 7.89585C11.284 7.89585 11.1705 8.02108 11.1165 8.25365C11.1111 8.27154 11.0949 8.30136 11.0786 8.32521C11.0462 8.36695 10.9814 8.37291 10.9219 8.3431C10.8679 8.31328 10.8571 8.24172 10.8895 8.03897C10.9327 7.78852 10.9057 7.68118 10.8031 7.60962C10.7328 7.56788 10.6139 7.54999 10.5383 7.57384C10.4734 7.59769 10.3924 7.6931 10.3708 7.76466C10.3329 7.90778 10.3654 7.99723 10.5058 8.1642C10.5653 8.23576 10.6193 8.30136 10.6247 8.31925C10.6463 8.3908 10.5653 8.47429 10.495 8.4564C10.4518 8.44447 10.414 8.40273 10.3491 8.29539C10.2465 8.12246 10.106 8.06879 9.96547 8.14631C9.84659 8.21191 9.81417 8.36695 9.89522 8.49814C9.94386 8.57566 10.0249 8.62337 10.1546 8.65319C10.3383 8.69493 10.3924 8.74264 10.3437 8.8142C10.3167 8.84997 10.3167 8.84997 10.2303 8.84401C10.1006 8.82612 10.0465 8.83208 9.97628 8.87383C9.90063 8.91557 9.8682 8.95731 9.84659 9.04676C9.80336 9.22566 9.92224 9.38667 10.0898 9.38667C10.1816 9.38667 10.2465 9.34492 10.3654 9.22566C10.4896 9.0885 10.5167 9.07658 10.5545 9.10639C10.5977 9.13621 10.6031 9.18392 10.5761 9.27336C10.5058 9.47611 10.5707 9.68483 10.722 9.74446C10.7814 9.76831 10.8031 9.76831 10.8787 9.7385ZM17.7253 9.54171C17.293 9.48208 16.8931 9.24355 16.6986 8.9275C16.5149 8.62933 16.4176 8.29539 16.4176 7.9376C16.4176 7.4188 16.6229 6.99541 17.0228 6.70321C17.2714 6.51835 17.4659 6.45871 17.8442 6.44679C18.0387 6.44082 18.0874 6.44679 18.19 6.46468C18.39 6.51238 18.5629 6.60183 18.7088 6.73302C18.8385 6.85229 18.9844 7.08485 19.0546 7.29357C19.1411 7.54402 19.1897 7.94952 19.1627 8.15227L19.1573 8.20594H18.2495C17.7523 8.20594 17.3416 8.21191 17.3416 8.21787C17.3416 8.22383 17.3632 8.26558 17.3903 8.31328C17.5037 8.51007 17.6875 8.61144 17.9414 8.61144C18.1306 8.61144 18.3089 8.55778 18.4386 8.4564L18.4926 8.41466L18.779 8.71282C18.8817 8.82016 18.9844 8.92153 19.0816 9.02887C19.1087 9.05869 19.0816 9.09447 18.9736 9.18988C18.8006 9.33896 18.5899 9.4463 18.3359 9.50593C18.19 9.54767 17.8712 9.5596 17.7253 9.54171ZM7.858 7.97338C8.09576 7.91971 8.21465 7.79448 8.22545 7.59173C8.23626 7.44861 8.20384 7.3532 8.12278 7.26375C8.01471 7.15045 7.8634 7.10871 7.53377 7.10871H7.36085L7.37166 7.23394C7.37706 7.30549 7.38246 7.50824 7.38246 7.68714V8.00916L7.5824 7.99723C7.68508 7.99723 7.80936 7.97934 7.858 7.97338ZM18.2603 7.61558C18.2387 7.47246 18.163 7.36513 18.0333 7.29953C17.8928 7.22797 17.7091 7.23393 17.5632 7.31742C17.4659 7.37109 17.3686 7.50228 17.347 7.62155L17.3416 7.65733L17.4443 7.66329C17.5037 7.66329 17.7091 7.66925 17.909 7.66925H18.2711L18.2603 7.61558Z" fill="white"/>
</svg>
