<svg width="25" height="24" viewBox="0 0 25 24" fill="none" xmlns="http://www.w3.org/2000/svg">
<path d="M22.6652 3.5L23.4152 3.4999C23.4151 3.08572 23.0794 2.75 22.6652 2.75V3.5ZM2.66602 3.5V2.75C2.2518 2.75 1.91602 3.08579 1.91602 3.5H2.66602ZM2.66602 20.5H1.91602C1.91602 20.9142 2.2518 21.25 2.66602 21.25V20.5ZM22.6652 20.5V21.25C23.0794 21.25 23.4151 20.9143 23.4152 20.5001L22.6652 20.5ZM22.666 14.5L23.416 14.5001L23.4161 13.75H22.666V14.5ZM22.666 9.5V10.25H23.4161L23.416 9.4999L22.666 9.5ZM2.66602 9.5H1.91602V10.25H2.66602V9.5ZM2.66602 14.5V13.75H1.91602V14.5H2.66602ZM22.6652 2.75H2.66602V4.25H22.6652V2.75ZM2.66602 21.25H22.6652V19.75H2.66602V21.25ZM23.4152 20.5001L23.416 14.5001L21.916 14.4999L21.9152 20.4999L23.4152 20.5001ZM22.666 13.75H22.1915V15.25H22.666V13.75ZM22.1915 10.25H22.666V8.75H22.1915V10.25ZM23.416 9.4999L23.4152 3.4999L21.9152 3.5001L21.916 9.5001L23.416 9.4999ZM1.91602 3.5V9.5H3.41602V3.5H1.91602ZM2.66602 10.25H3.13912V8.75H2.66602V10.25ZM3.13912 13.75H2.66602V15.25H3.13912V13.75ZM1.91602 14.5V20.5H3.41602V14.5H1.91602ZM3.13912 10.25C4.10562 10.25 4.88912 11.0335 4.88912 12H6.38912C6.38912 10.2051 4.93404 8.75 3.13912 8.75V10.25ZM20.4415 12C20.4415 11.0335 21.225 10.25 22.1915 10.25V8.75C20.3966 8.75 18.9415 10.2051 18.9415 12H20.4415ZM4.88912 12C4.88912 12.9665 4.10562 13.75 3.13912 13.75V15.25C4.93404 15.25 6.38912 13.7949 6.38912 12H4.88912ZM22.1915 13.75C21.225 13.75 20.4415 12.9665 20.4415 12H18.9415C18.9415 13.7949 20.3966 15.25 22.1915 15.25V13.75Z" fill="#565A65"/>
<path d="M9.66602 3.5L9.66602 20.5" stroke="#565A65" stroke-width="1.5" stroke-linecap="round" stroke-linejoin="round"/>
</svg>
